<svg width="24" height="24" viewBox="0 0 24 24" fill="none" xmlns="http://www.w3.org/2000/svg">
<path fill-rule="evenodd" clip-rule="evenodd" d="M0 12.0233L1.80249 10.2138L5.29701 12.2377C5.39379 14.9012 7.06773 17.1647 9.41861 18.1361L8.20618 20.2295L0 12.0233ZM12.2027 18.6405L10.1542 22.1775L11.9767 24L20.2108 15.7659L18.1614 14.5789C17.1716 16.9064 14.8857 18.5571 12.2027 18.6405ZM17.9578 14.461C17.0268 16.6781 14.8788 18.266 12.3414 18.4011L15.4609 13.0149L17.9578 14.461ZM18.6837 11.8052L22.1588 13.8179L23.9533 12.0233L15.7156 3.75347L14.5121 5.83138C16.9047 6.79824 18.6079 9.09933 18.6837 11.8052ZM14.3939 6.0354C16.6766 6.94417 18.3155 9.10837 18.4447 11.6668L12.9691 8.49549L14.3939 6.0354ZM11.7153 5.34885L13.7703 1.80066L11.9767 0L3.74571 8.26303L5.79895 9.4522C6.77122 7.11931 9.04181 5.45576 11.7153 5.34885ZM6.00275 9.57024C6.91631 7.34815 9.04864 5.74806 11.5759 5.58965L8.44967 10.9874L6.00275 9.57024ZM5.53727 12.3769L10.9414 15.5068L9.53664 17.9323C7.29592 17.0192 5.68657 14.8926 5.53727 12.3769ZM12.2756 13.2032L13.1574 11.6807L11.635 10.799L10.7532 12.3215L12.2756 13.2032Z" fill="white"/>
</svg>
